<svg id="Layer_1" data-name="Layer 1" xmlns="http://www.w3.org/2000/svg" viewBox="0 0 64 64"><title>mosque</title><path d="M12.84,12.27a4,4,0,0,0,0-5.65l-2.5-2.5a.47.47,0,0,0-.66,0l-2.5,2.5a4,4,0,0,0,0,5.65h0a4,4,0,0,0,.81.61V32.21a3.45,3.45,0,0,1,.88-.29c1.22-.22,2.48-.41,3.76-.59a1.1,1.1,0,0,0,.95-1.18L12.16,12.82a4,4,0,0,0,.68-.54Z"/><path d="M51.38,31.33c1.27.18,2.52.37,3.74.59a3.45,3.45,0,0,1,.9.3V12.88a4,4,0,0,0,.81-.61h0a4,4,0,0,0,0-5.65l-2.5-2.5a.47.47,0,0,0-.66,0l-2.5,2.5a4,4,0,0,0,0,5.65h0a4,4,0,0,0,.68.54L50.43,30.15A1.1,1.1,0,0,0,51.38,31.33Z"/><path d="M21.35,22.11a14.93,14.93,0,0,0-2.62,3.54,3.23,3.23,0,0,0,3.11,4.71C25.17,30.13,28.58,30,32,30s6.83.12,10.16.35a3.23,3.23,0,0,0,3.11-4.71,14.93,14.93,0,0,0-2.62-3.54l-6.17-6.17a6.34,6.34,0,0,0-9,0Z"/><path d="M59,58a3,3,0,0,1-3-3V35.37a1.5,1.5,0,0,0-1.23-1.48A132.44,132.44,0,0,0,32,32,132.44,132.44,0,0,0,9.23,33.89,1.5,1.5,0,0,0,8,35.37V55a3,3,0,0,1-3,3,1,1,0,0,0,0,2H59a1,1,0,0,0,0-2ZM38,56.95A1.06,1.06,0,0,1,36.94,58H27.06A1.06,1.06,0,0,1,26,56.95V50.26A6.17,6.17,0,0,1,31.82,44,6,6,0,0,1,38,50Z"/><path d="M30.88,4.17a4,4,0,0,0-2.76,2.89A4,4,0,0,0,32,12a4,4,0,0,0,2.28-.73.24.24,0,0,0-.07-.44,2.92,2.92,0,0,1,0-5.67.24.24,0,0,0,.08-.44A4,4,0,0,0,30.88,4.17Z"/><circle cx="35" cy="8.01" r="1"/></svg>