<?xml version="1.0" ?><svg enable-background="new 0 0 512 512" id="Layer_1" version="1.1" viewBox="0 0 512 512" xml:space="preserve" xmlns="http://www.w3.org/2000/svg" xmlns:xlink="http://www.w3.org/1999/xlink"><g><g><linearGradient gradientUnits="userSpaceOnUse" id="SVGID_1_" x1="-0.0000027" x2="512" y1="256" y2="256"><stop offset="0" style="stop-color:#FFCA05"/><stop offset="1" style="stop-color:#FAAC18"/></linearGradient><circle cx="256" cy="256" fill="url(#SVGID_1_)" r="256"/><linearGradient gradientUnits="userSpaceOnUse" id="SVGID_2_" x1="42.6666641" x2="469.3333435" y1="256.0005188" y2="256.0005188"><stop offset="0" style="stop-color:#FAAC18"/><stop offset="1" style="stop-color:#FFCA05"/></linearGradient><path d="M256,469.3338623c-117.6314697,0-213.3333435-95.7018738-213.3333435-213.3333435    c0-117.6309204,95.7018661-213.333313,213.3333435-213.333313c117.6357422,0,213.3333435,95.7024002,213.3333435,213.333313    C469.3333435,373.6319885,373.6357422,469.3338623,256,469.3338623z" fill="url(#SVGID_2_)"/></g><g><polygon opacity="0.3" points="362.8373413,185.6565399 262.8533325,185.6565399 238.6810608,158.9045258     165.1621399,158.9045258 165.1621399,214.5573273 362.8373413,214.5573273   "/><path d="M144,224.1119995l16.624527,144.9840088h206.7514801L384,224.1119995H144z M209.4650726,299.5487976    h109.0767975v9.5541382H209.4650726V299.5487976z M336.4559937,337.1754761H191.5509338v-9.5541382h144.9050598V337.1754761z" opacity="0.3"/></g><g><polygon fill="#FFFFFF" points="354.8373413,177.6565399 254.8533325,177.6565399 230.6810608,150.9045258     157.1621399,150.9045258 157.1621399,206.5573273 354.8373413,206.5573273   "/><path d="M136,216.1119995l16.624527,144.9840088h206.7514801L376,216.1119995H136z M201.4650726,291.5487976    h109.0767975v9.5541382H201.4650726V291.5487976z M328.4559937,329.1754761H183.5509338v-9.5541382h144.9050598V329.1754761z" fill="#FFFFFF"/></g></g></svg>