<?xml version="1.0" ?><svg enable-background="new 0 0 512 512" id="Layer_1" version="1.1" viewBox="0 0 512 512" xml:space="preserve" xmlns="http://www.w3.org/2000/svg" xmlns:xlink="http://www.w3.org/1999/xlink"><g><g><linearGradient gradientUnits="userSpaceOnUse" id="SVGID_1_" x1="-0.0000027" x2="512" y1="256" y2="256"><stop offset="0" style="stop-color:#B49A85"/><stop offset="0.0650802" style="stop-color:#B0957F"/><stop offset="0.2856463" style="stop-color:#A88A71"/><stop offset="0.5538635" style="stop-color:#A38369"/><stop offset="1" style="stop-color:#A18166"/></linearGradient><circle cx="256" cy="256" fill="url(#SVGID_1_)" r="256"/><linearGradient gradientUnits="userSpaceOnUse" id="SVGID_2_" x1="42.6666641" x2="469.3333435" y1="256.0005188" y2="256.0005188"><stop offset="0" style="stop-color:#A18166"/><stop offset="0.4461364" style="stop-color:#A38369"/><stop offset="0.7143537" style="stop-color:#A88A71"/><stop offset="0.9349198" style="stop-color:#B0957F"/><stop offset="1" style="stop-color:#B49A85"/></linearGradient><path d="M256,469.3338623c-117.6315308,0-213.3333435-95.7023926-213.3333435-213.3333435    c0-117.6314545,95.7018051-213.333313,213.3333435-213.333313c117.6362,0,213.3333435,95.7018661,213.3333435,213.333313    C469.3333435,373.6314697,373.6362,469.3338623,256,469.3338623z" fill="url(#SVGID_2_)"/></g><path d="M368.9199524,196.9370728H182.0564728v-22.7616119L148.5466003,156.86026L144,165.6581268   l28.1508789,14.5482788v155.8000031h32.5797882c-4.2427216,3.6746521-6.9819336,9.0362549-6.9819336,15.0901184   c0,11.0693359,8.973877,20.0426636,20.0432587,20.0426636c11.069809,0,20.0436859-8.9733276,20.0436859-20.0426636   c0-6.0538635-2.7397461-11.4154663-6.9818726-15.0901184h63.0981903   c-4.2421875,3.6746521-6.9819336,9.0362549-6.9819336,15.0901184c0,11.0693359,8.973877,20.0426636,20.0432739,20.0426636   c11.070343,0,20.0436707-8.9733276,20.0436707-20.0426636c0-6.0538635-2.7391968-11.4154663-6.9813232-15.0901184h35.2618408   v-9.9056091H182.0564728v-25.2837219h174.7461395l26.4933777-84.2928162   C386.3476563,206.8165283,379.0970154,196.9370728,368.9199524,196.9370728z M206.389328,282.3280029h-9.9051208v-9.9056091   h9.9051208V282.3280029z M233.730072,282.3280029h-9.9050598v-9.9056091h9.9050598V282.3280029z M261.0735474,282.3280029   h-9.9055481v-9.9056091h9.9055481V282.3280029z M288.4143372,282.3280029h-9.9050598v-9.9056091h9.9050598V282.3280029z    M315.7600098,282.3280029h-9.9051514v-9.9056091h9.9051514V282.3280029z" opacity="0.3"/><path d="M360.9199524,188.9370728H174.0564728v-22.7616119L140.5466003,148.86026L136,157.6581268   l28.1508789,14.5482788v155.8000031h32.5797882c-4.2427216,3.6746521-6.9819336,9.0362549-6.9819336,15.0901184   c0,11.0693359,8.973877,20.0426636,20.0432587,20.0426636c11.069809,0,20.0436859-8.9733276,20.0436859-20.0426636   c0-6.0538635-2.7397461-11.4154663-6.9818726-15.0901184h63.0981903   c-4.2421875,3.6746521-6.9819336,9.0362549-6.9819336,15.0901184c0,11.0693359,8.973877,20.0426636,20.0432739,20.0426636   c11.070343,0,20.0436707-8.9733276,20.0436707-20.0426636c0-6.0538635-2.7391968-11.4154663-6.9813232-15.0901184h35.2618408   v-9.9056091H174.0564728v-25.2837219h174.7461395l26.4933777-84.2928162   C378.3476563,198.8165283,371.0970154,188.9370728,360.9199524,188.9370728z M198.389328,274.3280029h-9.9051208v-9.9056091   h9.9051208V274.3280029z M225.730072,274.3280029h-9.9050598v-9.9056091h9.9050598V274.3280029z M253.0735321,274.3280029   h-9.9055328v-9.9056091h9.9055328V274.3280029z M280.4143372,274.3280029h-9.9050598v-9.9056091h9.9050598V274.3280029z    M307.7600098,274.3280029h-9.9051514v-9.9056091h9.9051514V274.3280029z" fill="#FFFFFF"/></g></svg>