<?xml version="1.0" encoding="iso-8859-1"?>
<!-- Generator: Adobe Illustrator 16.0.0, SVG Export Plug-In . SVG Version: 6.00 Build 0)  -->
<!DOCTYPE svg PUBLIC "-//W3C//DTD SVG 1.1//EN" "http://www.w3.org/Graphics/SVG/1.1/DTD/svg11.dtd">
<svg version="1.1" id="Capa_1" xmlns="http://www.w3.org/2000/svg" xmlns:xlink="http://www.w3.org/1999/xlink" x="0px" y="0px"
	 width="79.536px" height="79.536px" viewBox="0 0 79.536 79.536" style="enable-background:new 0 0 79.536 79.536;"
	 xml:space="preserve">
<g>
	<path style="fill:#010002;" d="M62.003,79.536h7.529L56.157,59.688c2.563-0.398,4.691-1.59,6.379-3.537
		c1.693-1.947,2.543-4.256,2.543-6.923V10.457c0-2.868-1.025-5.331-3.076-7.387C59.942,1.018,57.426,0,54.464,0H25.073
		c-2.985,0-5.486,1.018-7.54,3.07c-2.05,2.056-3.076,4.519-3.076,7.387v38.771c0,2.667,0.87,4.997,2.62,6.995
		c1.74,1.999,3.845,3.154,6.304,3.459L10.004,79.536h7.529l1.284-1.906h41.901L62.003,79.536z M57.529,53.226
		c-0.911,0.922-2.103,1.389-3.531,1.389c-1.336,0-2.465-0.467-3.387-1.389c-0.922-0.927-1.388-2.097-1.388-3.536
		c0-1.331,0.466-2.485,1.388-3.459s2.051-1.46,3.387-1.46c1.429,0,2.62,0.491,3.531,1.46c0.922,0.974,1.388,2.128,1.388,3.459
		C58.917,51.129,58.451,52.299,57.529,53.226z M20.922,11.434c0-1.439,0.466-2.615,1.388-3.545c0.914-0.921,2.094-1.382,3.531-1.382
		h27.846c1.439,0,2.641,0.461,3.619,1.382c0.989,0.93,1.471,2.105,1.471,3.545V23.84c0,1.438-0.492,2.62-1.471,3.542
		s-2.17,1.377-3.619,1.377H25.836c-1.437,0-2.618-0.456-3.531-1.377c-0.922-0.922-1.383-2.1-1.383-3.542V11.434z M22,53.226
		c-0.935-0.927-1.39-2.097-1.39-3.536c0-1.331,0.456-2.485,1.39-3.459c0.932-0.974,2.1-1.471,3.542-1.471
		c1.326,0,2.455,0.497,3.386,1.466c0.919,0.979,1.385,2.133,1.385,3.464c0,1.439-0.466,2.609-1.39,3.536
		c-0.927,0.922-2.056,1.389-3.381,1.389C24.099,54.614,22.932,54.147,22,53.226z M23.128,71.22l3.487-5.214h26.305l3.5,5.214H23.128
		z"/>
</g>
<g>
</g>
<g>
</g>
<g>
</g>
<g>
</g>
<g>
</g>
<g>
</g>
<g>
</g>
<g>
</g>
<g>
</g>
<g>
</g>
<g>
</g>
<g>
</g>
<g>
</g>
<g>
</g>
<g>
</g>
</svg>
